<mxfile host="app.diagrams.net" modified="2023-08-05T04:17:36.192Z" agent="Mozilla/5.0 (Macintosh; Intel Mac OS X 10_15_7) AppleWebKit/537.36 (KHTML, like Gecko) Chrome/113.0.0.0 Safari/537.36" version="21.5.0" etag="zy6JQsDXbIpjFiJlMm7i" type="github">
  <diagram name="第 1 页" id="bhKC-1vOEtYWSJF34Smm">
    <mxGraphModel>
      <root>
        <mxCell id="0" />
        <mxCell id="1" parent="0" />
      </root>
    </mxGraphModel>
  </diagram>
</mxfile>
